<svg xmlns="http://www.w3.org/2000/svg" width="166" height="55" viewBox="0 0 166 55" fill="none">
  <path d="M11.7005 0.00275101C12.2076 1.13617e-06 12.7099 1.13631e-06 13.2182 1.13631e-06H152.683C153.182 1.13631e-06 153.688 -0.000136357 154.186 0.00261352C154.531 0.00474641 154.883 0.0105454 155.231 0.016269C155.309 0.0175557 155.387 0.0188386 155.464 0.0200752C156.393 0.0302885 157.32 0.111513 158.237 0.263027C159.157 0.418284 160.049 0.708845 160.882 1.12511C162.55 1.97445 163.907 3.3208 164.762 4.9748C165.18 5.79886 165.47 6.68121 165.621 7.59158C165.775 8.5015 165.861 9.42159 165.878 10.3442C165.883 10.7659 165.883 11.1888 165.883 11.6105C165.894 12.1087 165.894 12.608 165.894 13.1117V41.8872C165.894 42.3948 165.894 42.8916 165.883 43.3911C165.883 43.818 165.883 44.2316 165.878 44.6586C165.861 45.5812 165.775 46.5012 165.62 47.4111C165.47 48.3221 165.181 49.205 164.762 50.0294C164.337 50.8499 163.784 51.5989 163.124 52.249C162.469 52.9046 161.712 53.4518 160.882 53.8696C160.049 54.287 159.157 54.5793 158.237 54.7369C157.32 54.8872 156.393 54.9685 155.464 54.98C155.042 54.9894 154.608 54.9947 154.186 54.9947C153.688 54.9975 153.182 54.9975 152.683 54.9975H13.2182C12.7099 54.9975 12.2076 54.9975 11.7006 54.9947C11.2761 54.9947 10.855 54.9894 10.4266 54.98C9.49575 54.9678 8.56714 54.8866 7.64853 54.7369C6.73125 54.5804 5.84291 54.288 5.01325 53.8696C4.18263 53.452 3.42501 52.9048 2.76933 52.249C2.10758 51.6015 1.55598 50.8519 1.13596 50.0294C0.71418 49.2056 0.42198 48.3226 0.269503 47.4111C0.11516 46.5014 0.0321017 45.5812 0.0210722 44.6588C0.0122567 44.3667 0.00882069 44.081 0.0053576 43.793C0.00375584 43.6598 0.00214829 43.5261 0 43.3911V11.6105C0.00217347 11.4756 0.00379345 11.3405 0.00541392 11.2055C0.0088581 10.9183 0.0123045 10.631 0.0210722 10.3443C0.0320913 9.42181 0.11515 8.50152 0.269503 7.59171C0.422391 6.68072 0.714574 5.79821 1.13596 4.97466C1.55618 4.14955 2.1077 3.39698 2.76933 2.74589C3.4275 2.09291 4.18463 1.54609 5.01325 1.12525C5.84291 0.70796 6.73135 0.417321 7.64853 0.263164C8.56698 0.112292 9.49569 0.0310729 10.4266 0.0202127C10.5144 0.0188326 10.6018 0.0174007 10.6891 0.0159723C11.0277 0.0104277 11.3631 0.00493759 11.7005 0.00275101Z" fill="black"/>
  <path d="M11.7072 53.7944C11.2847 53.7944 10.8726 53.789 10.4535 53.7796C9.58538 53.7685 8.71928 53.6936 7.86231 53.5555C7.06323 53.419 6.28914 53.165 5.56558 52.8021C4.84863 52.4421 4.19471 51.9702 3.62888 51.4043C3.05481 50.8451 2.57686 50.1965 2.21399 49.4842C1.84715 48.7673 1.59328 47.9989 1.46121 47.2057C1.31864 46.3534 1.24152 45.4915 1.23052 44.6277C1.22165 44.3377 1.21014 43.3723 1.21014 43.3723V11.6103C1.21014 11.6103 1.22234 10.6597 1.23052 10.3803C1.24109 9.51782 1.31779 8.65738 1.45996 7.80643C1.59229 7.01105 1.84638 6.2404 2.21343 5.52115C2.57491 4.80934 3.05014 4.16023 3.6207 3.59898C4.19064 3.03241 4.84668 2.55802 5.56489 2.19311C6.2868 1.83136 7.05944 1.57927 7.85691 1.44528C8.71671 1.30589 9.58583 1.23056 10.457 1.21993L11.7079 1.20288H154.179L155.445 1.22034C156.308 1.23051 157.17 1.30525 158.021 1.44391C158.827 1.57961 159.608 1.83351 160.338 2.19724C161.777 2.9326 162.947 4.09603 163.686 5.52444C164.047 6.23877 164.297 7.00318 164.428 7.79172C164.572 8.64963 164.652 9.51682 164.669 10.3864C164.673 10.7757 164.673 11.194 164.673 11.6103C164.684 12.1259 164.684 12.6166 164.684 13.1115V41.887C164.684 42.3865 164.684 42.8739 164.673 43.3653C164.673 43.8125 164.673 44.222 164.667 44.6436C164.651 45.4977 164.572 46.3494 164.43 47.192C164.301 47.991 164.049 48.7654 163.682 49.4882C163.316 50.1927 162.841 50.8357 162.274 51.3934C161.708 51.9624 161.053 52.4371 160.334 52.7993C159.606 53.165 158.826 53.4199 158.021 53.5553C157.165 53.6941 156.298 53.769 155.43 53.7795C155.016 53.7891 154.601 53.794 154.186 53.7942L152.683 53.797L11.7072 53.7944Z" fill="black"/>
  <path d="M34.3379 27.9126C34.3528 26.765 34.6601 25.6398 35.2313 24.6417C35.8025 23.6435 36.619 22.8049 37.6048 22.2038C36.9785 21.3168 36.1523 20.5868 35.1919 20.0718C34.2314 19.5568 33.1631 19.271 32.0718 19.2371C29.7437 18.9947 27.4869 20.6187 26.3005 20.6187C25.0913 20.6187 23.2648 19.2612 21.298 19.3013C20.0258 19.3421 18.786 19.709 17.6992 20.3662C16.6125 21.0235 15.716 21.9488 15.097 23.0519C12.4158 27.6559 14.4157 34.4219 16.9842 38.1433C18.2692 39.9657 19.7709 42.0011 21.736 41.9289C23.6588 41.8499 24.3769 40.7128 26.6982 40.7128C28.9979 40.7128 29.6716 41.9289 31.6765 41.883C33.7399 41.8499 35.0399 40.0527 36.2798 38.2132C37.2031 36.9147 37.9135 35.4797 38.3848 33.9612C37.1861 33.4583 36.1631 32.6166 35.4434 31.541C34.7237 30.4654 34.3392 29.2035 34.3379 27.9126ZM30.551 16.7896C31.676 15.4501 32.2302 13.7285 32.096 11.9902C30.3772 12.1693 28.7895 12.984 27.6492 14.2721C27.0917 14.9014 26.6647 15.6334 26.3927 16.4264C26.1206 17.2195 26.0088 18.0579 26.0637 18.8938C26.9234 18.9026 27.7739 18.7178 28.5512 18.3533C29.3285 17.9888 30.0122 17.4542 30.551 16.7896V16.7896ZM58.645 37.3158H52.0829L50.5071 41.9306H47.7275L53.9431 24.8566H56.8308L63.0463 41.9306H60.2194L58.645 37.3158ZM52.7625 35.1861H57.964L55.3998 27.6966H55.328L52.7625 35.1861ZM76.4696 35.7072C76.4696 39.5755 74.3819 42.0608 71.2316 42.0608C70.4335 42.1022 69.6398 41.9199 68.9414 41.5347C68.2429 41.1496 67.668 40.5771 67.2824 39.8829H67.2227V46.0487H64.6464V29.4823H67.1403V31.5528H67.1877C67.591 30.862 68.1757 30.2925 68.8794 29.905C69.5832 29.5175 70.3797 29.3264 71.1842 29.3521C74.3697 29.3521 76.4696 31.8496 76.4696 35.7071V35.7072ZM73.8214 35.7072C73.8214 33.187 72.5083 31.53 70.5046 31.53C68.536 31.53 67.2121 33.2217 67.2121 35.7071C67.2121 38.2154 68.536 39.8951 70.5046 39.8951C72.5083 39.8951 73.8214 38.2503 73.8214 35.7071V35.7072ZM90.2841 35.7072C90.2841 39.5755 88.1965 42.0608 85.0461 42.0608C84.2481 42.1022 83.4544 41.9199 82.756 41.5347C82.0576 41.1495 81.4826 40.5771 81.097 39.8829H81.0374V46.0487H78.461V29.4823H80.9548V31.5528H81.0022C81.4055 30.862 81.9902 30.2925 82.6939 29.905C83.3977 29.5175 84.1942 29.3264 84.9987 29.3521C88.1843 29.3521 90.2841 31.8496 90.2841 35.7071V35.7072ZM87.636 35.7072C87.636 33.187 86.3228 31.53 84.3191 31.53C82.3505 31.53 81.0266 33.2217 81.0266 35.7071C81.0266 38.2154 82.3505 39.8951 84.3191 39.8951C86.3228 39.8951 87.636 38.2503 87.636 35.7071V35.7072ZM99.4145 37.1735C99.6053 38.8666 101.264 39.9783 103.53 39.9783C105.702 39.9783 107.264 38.8666 107.264 37.3398C107.264 36.0145 106.322 35.221 104.091 34.6773L101.859 34.1442C98.6983 33.3869 97.2307 31.9206 97.2307 29.5413C97.2307 26.5954 99.8193 24.572 103.495 24.572C107.133 24.572 109.626 26.5954 109.71 29.5413H107.11C106.954 27.8375 105.534 26.8089 103.458 26.8089C101.383 26.8089 99.9627 27.8496 99.9627 29.3641C99.9627 30.5713 100.87 31.2816 103.089 31.8252L104.985 32.2872C108.518 33.1156 109.985 34.5228 109.985 37.0201C109.985 40.2145 107.42 42.2152 103.339 42.2152C99.5212 42.2152 96.9436 40.2614 96.7771 37.1733L99.4145 37.1735ZM115.545 26.5365V29.4823H117.932V31.5058H115.545V38.3684C115.545 39.4345 116.023 39.9313 117.073 39.9313C117.356 39.9264 117.639 39.9067 117.92 39.8722V41.8837C117.448 41.9711 116.969 42.0106 116.489 42.0017C113.948 42.0017 112.957 41.0552 112.957 38.6409V31.5058H111.132V29.4823H112.957V26.5365H115.545ZM119.315 35.7072C119.315 31.7904 121.64 29.3293 125.267 29.3293C128.907 29.3293 131.222 31.7904 131.222 35.7072C131.222 39.6346 128.919 42.085 125.267 42.085C121.617 42.085 119.315 39.6346 119.315 35.7072ZM128.596 35.7072C128.596 33.0205 127.355 31.4346 125.267 31.4346C123.18 31.4346 121.94 33.0324 121.94 35.7072C121.94 38.4047 123.18 39.9783 125.267 39.9783C127.355 39.9783 128.596 38.4047 128.596 35.7072ZM133.346 29.4823H135.803V31.6011H135.862C136.029 30.9394 136.42 30.3546 136.969 29.945C137.519 29.5354 138.194 29.3261 138.882 29.3521C139.179 29.3511 139.475 29.383 139.764 29.4474V31.8375C139.389 31.7239 138.998 31.6717 138.607 31.6831C138.232 31.668 137.859 31.7334 137.513 31.8749C137.167 32.0164 136.855 32.2305 136.6 32.5026C136.345 32.7747 136.152 33.0983 136.035 33.4512C135.918 33.8041 135.88 34.1779 135.922 34.547V41.9306H133.346V29.4823ZM151.643 38.2744C151.296 40.5342 149.077 42.085 146.238 42.085C142.587 42.085 140.321 39.6588 140.321 35.7662C140.321 31.8617 142.599 29.3293 146.13 29.3293C149.603 29.3293 151.786 31.6952 151.786 35.4695V36.3449H142.921V36.4993C142.88 36.9574 142.938 37.419 143.091 37.8532C143.244 38.2875 143.488 38.6846 143.807 39.0181C144.127 39.3516 144.514 39.6138 144.943 39.7875C145.373 39.9612 145.834 40.0423 146.298 40.0253C146.907 40.082 147.518 39.9421 148.04 39.6266C148.562 39.3111 148.968 38.8369 149.196 38.2744H151.643ZM142.934 34.5591H149.209C149.232 34.1472 149.169 33.735 149.024 33.3483C148.878 32.9617 148.654 32.6089 148.365 32.3123C148.076 32.0156 147.728 31.7814 147.344 31.6244C146.959 31.4673 146.546 31.3908 146.13 31.3997C145.71 31.3972 145.294 31.4772 144.906 31.6349C144.518 31.7927 144.165 32.0252 143.868 32.3189C143.571 32.6126 143.335 32.9618 143.175 33.3463C143.015 33.7308 142.932 34.143 142.934 34.5591V34.5591ZM52.4396 12.005C52.9797 11.9665 53.5218 12.0474 54.0265 12.2419C54.5313 12.4364 54.9863 12.7395 55.3587 13.1295C55.731 13.5195 56.0114 13.9865 56.1797 14.497C56.348 15.0075 56.4 15.5487 56.3319 16.0815C56.3319 18.7024 54.9035 20.2091 52.4396 20.2091H49.4516V12.0048L52.4396 12.005ZM50.7365 19.0488H52.2961C52.6821 19.0716 53.0683 19.0088 53.4267 18.865C53.7851 18.7211 54.1067 18.4999 54.368 18.2172C54.6293 17.9346 54.8237 17.5977 54.9372 17.2311C55.0507 16.8646 55.0804 16.4775 55.024 16.0981C55.0763 15.7203 55.0436 15.3356 54.9284 14.9717C54.8132 14.6078 54.6182 14.2737 54.3575 13.9933C54.0968 13.7129 53.7768 13.4932 53.4204 13.3499C53.064 13.2066 52.6801 13.1432 52.2961 13.1643H50.7365V19.0488ZM57.7832 17.1106C57.744 16.7038 57.7909 16.2933 57.921 15.9054C58.051 15.5176 58.2614 15.161 58.5386 14.8586C58.8158 14.5561 59.1537 14.3144 59.5305 14.149C59.9074 13.9837 60.315 13.8982 60.7271 13.8982C61.1392 13.8982 61.5468 13.9837 61.9236 14.149C62.3005 14.3144 62.6384 14.5561 62.9156 14.8586C63.1927 15.161 63.4031 15.5176 63.5332 15.9054C63.6633 16.2933 63.7102 16.7038 63.671 17.1106C63.7111 17.518 63.6648 17.9292 63.5351 18.3177C63.4054 18.7062 63.1952 19.0636 62.9179 19.3667C62.6406 19.6699 62.3025 19.9121 61.9252 20.0779C61.5479 20.2437 61.1398 20.3293 60.7271 20.3293C60.3144 20.3293 59.9063 20.2437 59.529 20.0779C59.1517 19.9121 58.8135 19.6699 58.5363 19.3667C58.259 19.0636 58.0488 18.7062 57.9191 18.3177C57.7894 17.9292 57.7431 17.518 57.7832 17.1106ZM62.4039 17.1106C62.4039 15.7686 61.7959 14.9838 60.7292 14.9838C59.6582 14.9838 59.0559 15.7686 59.0559 17.1106C59.0559 18.4634 59.6584 19.2422 60.7292 19.2422C61.7959 19.2422 62.4039 18.4581 62.4039 17.1106V17.1106ZM71.4976 20.2089H70.2194L68.9293 15.6491H68.8319L67.5471 20.2089H66.2813L64.5606 14.0176H65.8101L66.9284 18.7419H67.0205L68.3039 14.0176H69.4858L70.7693 18.7419H70.8667L71.9795 14.0176H73.2116L71.4976 20.2089ZM74.6587 14.0177H75.8447V15.0012H75.9368C76.093 14.6479 76.3564 14.3518 76.6903 14.1541C77.0243 13.9563 77.4121 13.8668 77.7998 13.8981C78.1035 13.8755 78.4085 13.9209 78.6921 14.031C78.9758 14.1412 79.2308 14.3132 79.4383 14.5343C79.6458 14.7555 79.8005 15.0201 79.8909 15.3086C79.9813 15.597 80.0051 15.902 79.9605 16.2008V20.2088H78.7285V16.5077C78.7285 15.5128 78.2925 15.018 77.3814 15.018C77.1751 15.0085 76.9693 15.0433 76.7779 15.1201C76.5865 15.1968 76.4141 15.3137 76.2725 15.4628C76.131 15.6118 76.0236 15.7894 75.9577 15.9834C75.8918 16.1775 75.8689 16.3833 75.8908 16.5869V20.2089H74.6587V14.0177ZM81.9235 11.6007H83.1554V20.2089H81.9235V11.6007ZM84.8681 17.1106C84.8288 16.7037 84.8758 16.2932 85.0059 15.9053C85.136 15.5174 85.3464 15.1608 85.6236 14.8582C85.9008 14.5557 86.2387 14.314 86.6157 14.1486C86.9926 13.9832 87.4002 13.8978 87.8124 13.8978C88.2246 13.8978 88.6322 13.9832 89.0091 14.1486C89.386 14.314 89.7239 14.5557 90.0012 14.8582C90.2784 15.1608 90.4888 15.5174 90.6189 15.9053C90.749 16.2932 90.7959 16.7037 90.7567 17.1106C90.7966 17.5179 90.7501 17.929 90.6203 18.3174C90.4905 18.7058 90.2802 19.063 90.0029 19.366C89.7256 19.6691 89.3875 19.9112 89.0103 20.0769C88.633 20.2426 88.225 20.3282 87.8124 20.3282C87.3998 20.3282 86.9918 20.2426 86.6145 20.0769C86.2373 19.9112 85.8991 19.6691 85.6219 19.366C85.3446 19.063 85.1343 18.7058 85.0045 18.3174C84.8746 17.929 84.8282 17.5179 84.8681 17.1106V17.1106ZM89.4887 17.1106C89.4887 15.7686 88.8808 14.9838 87.814 14.9838C86.7431 14.9838 86.1407 15.7686 86.1407 17.1106C86.1407 18.4634 86.7432 19.2422 87.814 19.2422C88.8808 19.2422 89.4887 18.4581 89.4887 17.1106ZM92.0536 18.4581C92.0536 17.3436 92.8902 16.7011 94.3754 16.6098L96.0663 16.5131V15.9787C96.0663 15.3247 95.6305 14.9556 94.7884 14.9556C94.1006 14.9556 93.624 15.2059 93.4873 15.6437H92.2945C92.4204 14.5802 93.4291 13.8982 94.8452 13.8982C96.4103 13.8982 97.2929 14.671 97.2929 15.9787V20.2089H96.1069V19.3389H96.0095C95.8116 19.651 95.5338 19.9054 95.2044 20.0762C94.875 20.2469 94.5058 20.328 94.1345 20.3109C93.8724 20.338 93.6075 20.3102 93.357 20.2295C93.1064 20.1488 92.8756 20.0169 92.6795 19.8424C92.4835 19.6678 92.3265 19.4544 92.2187 19.216C92.1109 18.9776 92.0546 18.7194 92.0536 18.4581V18.4581ZM96.0663 17.929V17.4113L94.5419 17.508C93.6822 17.5651 93.2923 17.8552 93.2923 18.4009C93.2923 18.9581 93.7797 19.2825 94.4499 19.2825C94.6462 19.3022 94.8446 19.2826 95.0332 19.2247C95.2217 19.1668 95.3966 19.0719 95.5474 18.9456C95.6982 18.8193 95.8219 18.6643 95.911 18.4896C96.0002 18.315 96.053 18.1243 96.0663 17.929V17.929ZM98.9122 17.1106C98.9122 15.1542 99.9261 13.915 101.503 13.915C101.894 13.8972 102.281 13.9898 102.62 14.1822C102.959 14.3745 103.236 14.6586 103.418 15.0012H103.51V11.6006H104.742V20.2088H103.561V19.2305H103.464C103.267 19.5708 102.981 19.8514 102.636 20.0418C102.29 20.2322 101.899 20.3252 101.504 20.3108C99.9153 20.3108 98.9122 19.0714 98.9122 17.1105V17.1106ZM100.185 17.1106C100.185 18.4237 100.809 19.214 101.853 19.214C102.891 19.214 103.533 18.4124 103.533 17.1159C103.533 15.8256 102.884 15.0126 101.853 15.0126C100.816 15.0126 100.185 15.8082 100.185 17.1106ZM109.839 17.1106C109.8 16.7038 109.847 16.2933 109.977 15.9054C110.107 15.5176 110.317 15.161 110.594 14.8586C110.872 14.5561 111.209 14.3144 111.586 14.149C111.963 13.9837 112.371 13.8982 112.783 13.8982C113.195 13.8982 113.603 13.9837 113.979 14.149C114.356 14.3144 114.694 14.5561 114.971 14.8586C115.248 15.161 115.459 15.5176 115.589 15.9054C115.719 16.2933 115.766 16.7038 115.727 17.1106C115.767 17.518 115.721 17.9292 115.591 18.3177C115.461 18.7062 115.251 19.0636 114.974 19.3667C114.696 19.6699 114.358 19.9121 113.981 20.0779C113.604 20.2437 113.196 20.3293 112.783 20.3293C112.37 20.3293 111.962 20.2437 111.585 20.0779C111.207 19.9121 110.869 19.6699 110.592 19.3667C110.315 19.0636 110.105 18.7062 109.975 18.3177C109.845 17.9292 109.799 17.518 109.839 17.1106V17.1106ZM114.46 17.1106C114.46 15.7686 113.852 14.9838 112.785 14.9838C111.714 14.9838 111.112 15.7686 111.112 17.1106C111.112 18.4634 111.714 19.2422 112.785 19.2422C113.852 19.2422 114.46 18.4581 114.46 17.1106ZM117.38 14.0177H118.566V15.0012H118.658C118.814 14.6479 119.077 14.3518 119.411 14.1541C119.745 13.9563 120.133 13.8668 120.521 13.8981C120.825 13.8755 121.13 13.9209 121.413 14.031C121.697 14.1412 121.952 14.3132 122.159 14.5343C122.367 14.7555 122.521 15.0201 122.612 15.3086C122.702 15.597 122.726 15.902 122.682 16.2008V20.2088H121.449V16.5077C121.449 15.5128 121.013 15.018 120.102 15.018C119.896 15.0085 119.69 15.0433 119.499 15.1201C119.308 15.1968 119.135 15.3137 118.994 15.4628C118.852 15.6118 118.745 15.7894 118.679 15.9834C118.613 16.1775 118.59 16.3833 118.612 16.5869V20.2089H117.38L117.38 14.0177ZM129.643 12.4763V14.0459H130.995V15.0751H129.643V18.2586C129.643 18.9071 129.912 19.1912 130.526 19.1912C130.683 19.1907 130.839 19.1812 130.995 19.1629V20.1807C130.774 20.22 130.55 20.2409 130.325 20.2432C128.955 20.2432 128.41 19.7651 128.41 18.5715V15.0751H127.419V14.0458H128.41V12.4764L129.643 12.4763ZM132.678 11.6007H133.899V15.0126H133.997C134.161 14.6561 134.431 14.3582 134.772 14.1598C135.113 13.9613 135.507 13.8718 135.9 13.9035C136.202 13.8872 136.505 13.9372 136.785 14.05C137.065 14.1628 137.317 14.3356 137.523 14.5561C137.728 14.7765 137.882 15.0392 137.973 15.3254C138.064 15.6116 138.091 15.9142 138.05 16.2117V20.2089H136.817V16.5131C136.817 15.5241 136.353 15.0234 135.482 15.0234C135.27 15.0061 135.057 15.035 134.858 15.108C134.659 15.1809 134.478 15.2962 134.328 15.4457C134.178 15.5952 134.063 15.7753 133.991 15.9735C133.919 16.1717 133.891 16.3831 133.91 16.593V20.2089H132.678V11.6007ZM145.234 18.5371C145.066 19.103 144.704 19.5925 144.209 19.92C143.715 20.2474 143.12 20.392 142.529 20.3284C142.117 20.3392 141.709 20.2611 141.331 20.0995C140.953 19.9379 140.615 19.6967 140.341 19.3926C140.067 19.0886 139.862 18.729 139.742 18.3387C139.622 17.9485 139.589 17.537 139.645 17.1328C139.59 16.7273 139.624 16.3149 139.744 15.9235C139.864 15.5321 140.067 15.1708 140.34 14.864C140.613 14.5573 140.949 14.3123 141.326 14.1457C141.703 13.979 142.111 13.8946 142.523 13.8981C144.26 13.8981 145.308 15.0751 145.308 17.0192V17.4456H140.9V17.5141C140.881 17.7413 140.91 17.9699 140.985 18.1855C141.06 18.401 141.179 18.5986 141.336 18.7656C141.492 18.9326 141.682 19.0653 141.894 19.1552C142.105 19.2451 142.333 19.2902 142.563 19.2877C142.857 19.3228 143.156 19.2702 143.42 19.1365C143.685 19.0029 143.903 18.7942 144.048 18.5371H145.234ZM140.9 16.542H144.053C144.069 16.3342 144.04 16.1255 143.97 15.9292C143.899 15.733 143.788 15.5536 143.643 15.4026C143.498 15.2515 143.323 15.1322 143.129 15.0522C142.935 14.9722 142.727 14.9333 142.517 14.9381C142.304 14.9354 142.092 14.9751 141.895 15.0548C141.697 15.1345 141.518 15.2525 141.367 15.402C141.217 15.5515 141.098 15.7293 141.017 15.9251C140.937 16.1209 140.897 16.3306 140.9 16.542V16.542Z" fill="white"/>
</svg>