<svg width="42" height="42" viewBox="0 0 42 42" fill="none" xmlns="http://www.w3.org/2000/svg">
<path d="M28.1682 40.5187C17.3559 44.454 5.40124 38.8795 1.46587 28.0672C-2.4695 17.2548 3.10505 5.30018 13.9174 1.36482C24.7297 -2.57055 36.6844 3.00399 40.6197 13.8163C44.5551 24.6287 38.9806 36.5833 28.1682 40.5187ZM26.7431 36.6033C30.8968 35.0915 34.2798 31.9915 36.1479 27.9854C38.016 23.9793 38.2162 19.3951 36.7043 15.2414C35.1925 11.0877 32.0926 7.70471 28.0864 5.83662C24.0803 3.96853 19.4962 3.76838 15.3425 5.2802C11.1888 6.79202 7.80576 9.89198 5.93767 13.8981C4.06959 17.9042 3.86944 22.4884 5.38126 26.6421C6.89308 30.7958 9.99304 34.1788 13.9992 36.0469C18.0053 37.915 22.5894 38.1151 26.7431 36.6033ZM23.0005 20.2292L30.8313 17.379L32.2564 21.2944L20.5102 25.5697L15.5224 11.8658L19.4378 10.4407L23.0005 20.2292Z" fill="white"/>
</svg>
