<svg width="24" height="25" viewBox="0 0 24 25" fill="none" xmlns="http://www.w3.org/2000/svg">
<g id="Frame">
<path id="Vector" d="M16.9392 3.61011C18.2802 3.61011 19.5702 4.14011 20.5192 5.09111C21.4692 6.04011 22.0002 7.32011 22.0002 8.66011V16.5601C22.0002 19.3501 19.7302 21.6101 16.9392 21.6101H7.06024C4.26924 21.6101 2.00024 19.3501 2.00024 16.5601V8.66011C2.00024 5.87011 4.25924 3.61011 7.06024 3.61011H16.9392ZM18.0702 8.81011C17.8602 8.79911 17.6602 8.87011 17.5092 9.01011L13.0002 12.6101C12.4202 13.0911 11.5892 13.0911 11.0002 12.6101L6.50024 9.01011C6.18924 8.78011 5.75924 8.81011 5.50024 9.08011C5.23024 9.35011 5.20024 9.78011 5.42924 10.0801L5.56024 10.2101L10.1102 13.7601C10.6702 14.2001 11.3492 14.4401 12.0602 14.4401C12.7692 14.4401 13.4602 14.2001 14.0192 13.7601L18.5302 10.1501L18.6102 10.0701C18.8492 9.78011 18.8492 9.36011 18.5992 9.07011C18.4602 8.92111 18.2692 8.83011 18.0702 8.81011Z" fill="#FC9C2A"/>
</g>
</svg>
