<svg xmlns="http://www.w3.org/2000/svg" width="166" height="55" viewBox="0 0 166 55" fill="none">
  <path d="M159.856 0H6.24978C2.87048 0 0.10553 3.09361 0.10553 6.87473V48.1229C0.10553 51.904 2.87042 54.9976 6.24978 54.9976H159.856C163.235 54.9976 166 51.904 166 48.1229V6.87473C166 3.09361 163.235 0 159.856 0Z" fill="black"/>
  <path fill-rule="evenodd" clip-rule="evenodd" d="M6.24978 0H159.856C163.235 0 166 3.09361 166 6.87473V48.1229C166 51.904 163.235 54.9976 159.856 54.9976H6.24978C2.87042 54.9976 0.10553 51.904 0.10553 48.1229V6.87473C0.10553 3.09361 2.87048 0 6.24978 0Z" fill="black"/>
  <path d="M159.158 54.1926H6.98052C3.66878 54.1926 0.959106 51.1905 0.959106 47.5212V7.49252C0.959106 3.82319 3.66873 0.821045 6.98052 0.821045H159.158C162.47 0.821045 165.179 3.82319 165.179 7.49252V47.5211C165.179 51.1905 162.47 54.1926 159.158 54.1926Z" fill="black"/>
  <path d="M58.3755 14.0843C58.3755 15.2362 58.0706 16.1535 57.46 16.8378C56.7664 17.6515 55.8625 18.0587 54.7512 18.0587C53.6871 18.0587 52.7822 17.6462 52.0382 16.8201C51.2928 15.9946 50.9208 14.9709 50.9208 13.7496C50.9208 12.5277 51.2928 11.5046 52.0382 10.6785C52.7822 9.85303 53.6871 9.43994 54.7512 9.43994C55.2793 9.43994 55.7848 9.55549 56.2648 9.78592C56.7448 10.0169 57.1298 10.3235 57.4178 10.7075L56.7697 11.4331C56.2816 10.7805 55.6096 10.4545 54.7512 10.4545C53.9751 10.4545 53.304 10.7597 52.7377 11.3703C52.1712 11.9816 51.888 12.7742 51.888 13.7496C51.888 14.725 52.1712 15.5176 52.7377 16.1289C53.304 16.7396 53.9751 17.0446 54.7512 17.0446C55.5746 17.0446 56.261 16.7379 56.8106 16.1235C57.1673 15.7233 57.3736 15.167 57.4288 14.4526H54.7512V13.4617H58.3241C58.3586 13.6772 58.3754 13.8839 58.3754 14.0843" fill="white"/>
  <path d="M58.3755 14.0843H58.2526C58.2516 15.21 57.9578 16.0843 57.3731 16.7407L57.3718 16.7418L57.3713 16.7429C56.6997 17.5285 55.8365 17.9195 54.7512 17.9212C53.7154 17.9195 52.8485 17.5243 52.1245 16.7229C51.4022 15.92 51.045 14.9398 51.0436 13.7496C51.045 12.5589 51.4022 11.5793 52.1245 10.7769C52.8485 9.97499 53.7154 9.57914 54.7512 9.57747C55.2634 9.57747 55.7511 9.68932 56.2162 9.91214C56.6818 10.1367 57.0496 10.431 57.3237 10.7963L57.4178 10.7075L57.3309 10.6103L56.6828 11.3364L56.7697 11.4331L56.8643 11.3451C56.3535 10.6603 55.6365 10.315 54.7512 10.3171C53.9463 10.316 53.2383 10.6378 52.6526 11.2716C52.0612 11.9074 51.7641 12.7447 51.7651 13.7496C51.7641 14.7546 52.0612 15.5918 52.6526 16.2277C53.2383 16.8615 53.9463 17.1833 54.7512 17.1822C55.6018 17.1838 56.3267 16.861 56.8974 16.2208C57.2785 15.7932 57.4946 15.2009 57.5513 14.4644L57.5627 14.3152H54.8741V13.5992H58.3241V13.4617L58.2031 13.4859C58.2367 13.6944 58.2526 13.8925 58.2526 14.0843H58.4983C58.4983 13.8753 58.481 13.6605 58.445 13.4371L58.4268 13.3242H54.6284V14.5901H57.4288V14.4526L57.3064 14.4408C57.2522 15.1327 57.0553 15.6537 56.7237 16.0264C56.1957 16.615 55.5476 16.9055 54.7512 16.9072C54.0039 16.9061 53.3698 16.6182 52.8231 16.0301C52.2816 15.4441 52.0123 14.696 52.0109 13.7496C52.0123 12.8033 52.2816 12.0551 52.8231 11.4691C53.3698 10.8811 54.0039 10.5932 54.7512 10.5921C55.5822 10.5943 56.2097 10.9015 56.6758 11.5218L56.7622 11.6367L57.5047 10.8048L57.5844 10.7157L57.5119 10.6194C57.21 10.2167 56.8077 9.89707 56.3133 9.65978C55.8179 9.42175 55.2952 9.30249 54.7512 9.30249C53.6588 9.30144 52.716 9.73109 51.9513 10.5814C51.1838 11.43 50.7969 12.4966 50.798 13.7496C50.7969 15.002 51.1838 16.0693 51.9518 16.9184C52.716 17.7682 53.6588 18.1973 54.7512 18.1962C55.8889 18.1973 56.8327 17.7745 57.5489 16.9329L57.46 16.8379L57.5469 16.9351C58.1834 16.2234 58.4992 15.2621 58.4984 14.0843H58.3755H58.3755ZM64.0396 10.6383H60.6819V13.254H63.7099V14.2453H60.6819V16.861H64.0396V17.8744H59.7353V9.62481H64.0396V10.6383" fill="white"/>
  <path d="M64.0396 10.638V10.5005H60.559V13.3912H63.587V14.1071L60.559 14.1075V16.9982H63.9167V17.7367H59.8582V9.76204H63.9167V10.638H64.0396V10.5005V10.638H64.1624V9.48706H59.6124V18.0117H64.1624V16.7232H60.8047V14.3825H63.8328V13.1162H60.8047V10.7755H64.1624V10.638H64.0396V10.638ZM68.0348 17.8742H67.0868V10.638H65.0274V9.62449H70.0941V10.638H68.0348V17.8741" fill="white"/>
  <path d="M68.0349 17.8742V17.7367H67.2097V10.5005H65.1504V9.7621H69.9713V10.5005H67.912V17.8742H68.0349V17.7367V17.8742H68.1578V10.7755H70.2171V9.48706H64.9047V10.7754H66.9639V18.0116H68.1578V17.8741H68.0349V17.8742ZM73.7601 17.8742V9.62449H74.7072V17.8741H73.7601" fill="white"/>
  <path d="M73.7599 17.8742H73.8829V9.76204H74.5841V17.7367H73.7599V17.8742H73.8829H73.7599V18.0117H74.8299V9.48706H73.6371V18.0117H73.7599V17.8742V17.8742ZM78.9095 17.8742H77.9615V10.638H75.9023V9.62449H80.9689V10.638H78.9095V17.8741" fill="white"/>
  <path d="M78.9098 17.8745V17.7369H78.0846V10.5007H76.0254V9.76232H80.8462V10.5007H78.7869V17.8744H78.9098V17.7369V17.8744H79.0327V10.7757H81.0919V9.48727H75.7797V10.7757H77.8388V18.0118H79.0327V17.8743H78.9098V17.8745ZM85.8538 16.1177C86.3995 16.7358 87.0673 17.0446 87.8569 17.0446C88.6465 17.0446 89.3147 16.7358 89.8595 16.1177C90.4058 15.4995 90.6794 14.7093 90.6794 13.7496C90.6794 12.7899 90.4058 11.9997 89.8595 11.3815C89.3147 10.7634 88.6465 10.4545 87.8569 10.4545C87.0673 10.4545 86.3995 10.7634 85.8538 11.3815C85.3089 11.9997 85.0354 12.7899 85.0354 13.7496C85.0354 14.7093 85.3089 15.4995 85.8538 16.1177ZM90.5603 16.8083C89.8355 17.6423 88.934 18.0587 87.8569 18.0587C86.7787 18.0587 85.8777 17.6423 85.1544 16.8083C84.429 15.9752 84.0681 14.9554 84.0681 13.7496C84.0681 12.5437 84.429 11.5238 85.1544 10.6909C85.8777 9.85667 86.7787 9.43994 87.8569 9.43994C88.9283 9.43994 89.8273 9.8589 90.5556 10.6963C91.2828 11.5336 91.6466 12.5513 91.6466 13.7496C91.6466 14.9554 91.2837 15.9752 90.5603 16.8083Z" fill="white"/>
  <path d="M85.8536 16.1177L85.7662 16.2144C86.3322 16.8573 87.0383 17.1838 87.8567 17.1822C88.6746 17.1838 89.3817 16.8573 89.9468 16.2144C90.5165 15.5709 90.803 14.7384 90.8021 13.7496C90.803 12.7609 90.5165 11.9284 89.9468 11.2849C89.3817 10.642 88.6746 10.3155 87.8567 10.3171C87.0383 10.3155 86.3322 10.642 85.7662 11.2849C85.1979 11.9284 84.9108 12.7609 84.9123 13.7496C84.9108 14.7383 85.1979 15.5709 85.7662 16.2144L85.8536 16.1177L85.941 16.021C85.4197 15.4275 85.159 14.6809 85.1581 13.7496C85.159 12.8184 85.4197 12.0718 85.941 11.4782C86.467 10.8848 87.0954 10.5937 87.8567 10.5921C88.6175 10.5937 89.2473 10.8848 89.772 11.4782C90.2943 12.0718 90.5549 12.8184 90.5559 13.7496C90.5549 14.6808 90.2943 15.4275 89.772 16.021C89.2473 16.6145 88.6176 16.9055 87.8567 16.9071C87.0954 16.9055 86.467 16.6145 85.941 16.021L85.8536 16.1177ZM90.5602 16.8083L90.4723 16.7128C89.7677 17.5205 88.906 17.9196 87.8567 17.9212C86.8069 17.9195 85.9453 17.5205 85.242 16.7128L85.2387 16.7085L85.242 16.7128C84.5388 15.9022 84.1918 14.9248 84.1908 13.7496C84.1918 12.5744 84.5388 11.597 85.242 10.7865C85.9453 9.9787 86.8069 9.57914 87.8567 9.57754C88.8993 9.57914 89.759 9.98036 90.4675 10.7924C91.1731 11.6066 91.5221 12.5825 91.5236 13.7496C91.5221 14.9248 91.1741 15.9022 90.4723 16.7128L90.5602 16.8083L90.6486 16.9039C91.3935 16.0478 91.7702 14.986 91.7694 13.7496C91.7703 12.5203 91.392 11.4606 90.6436 10.6008C89.8949 9.73752 88.9569 9.30101 87.8567 9.30249C86.7508 9.30101 85.81 9.73548 85.0659 10.5954V10.5948C84.3195 11.4514 83.9441 12.5133 83.9451 13.7496C83.9441 14.986 84.3195 16.0478 85.0659 16.9044L85.0692 16.9083L85.0659 16.9039C85.81 17.7638 86.7508 18.1973 87.8567 18.1962C88.9622 18.1973 89.903 17.7638 90.6486 16.9039L90.5602 16.8083V16.8083ZM92.9761 17.8745V9.62474H94.1291L97.7125 16.0424H97.7533L97.7125 14.4526V9.62474H98.6605V17.8744H97.6716L93.9227 11.1457H93.8819L93.9227 12.7361V17.8744H92.9761" fill="white"/>
  <path d="M92.9761 17.8742H93.099V9.76204H94.061L97.6443 16.1797H97.8795L97.8353 14.4503V9.7621H98.5376V17.7367H97.7399L93.9909 11.008H93.7557L93.7998 12.7381V17.7367H92.9761V17.8742H93.099H92.9761V18.0117H94.0456V12.7337L94.0048 11.1418L93.8819 11.1455V11.283H93.9227V11.1455L93.8185 11.2186L97.6035 18.0117H98.7834V9.48706H97.5896V14.454L97.6304 16.0459L97.7533 16.0422V15.9047H97.7125V16.0422L97.8167 15.9692L94.1972 9.48706H92.8533V18.0117H92.9762V17.8742L92.9761 17.8742ZM131.514 41.2482H133.807V24.0598H131.514L131.514 41.2482ZM152.167 30.2515L149.538 37.7035H149.46L146.732 30.2514H144.262L148.352 40.667L146.02 46.4606H148.413L154.717 30.2514L152.167 30.2515ZM139.163 39.2959C138.411 39.2959 137.364 38.8759 137.364 37.8361C137.364 36.5094 138.669 36.0009 139.795 36.0009C140.804 36.0009 141.277 36.2441 141.89 36.5762C141.712 38.168 140.487 39.2959 139.163 39.2959V39.2959ZM139.44 29.8754C137.779 29.8754 136.06 30.6938 135.349 32.5072L137.384 33.4578C137.819 32.5072 138.629 32.1972 139.479 32.1972C140.665 32.1972 141.87 32.9937 141.89 34.409V34.5857C141.475 34.3203 140.586 33.9223 139.499 33.9223C137.305 33.9223 135.071 35.2709 135.071 37.792C135.071 40.0919 136.87 41.5736 138.885 41.5736C140.428 41.5736 141.277 40.7997 141.811 39.8932H141.89V41.2197H144.103V34.6296C144.103 31.5785 142.068 29.8754 139.44 29.8754V29.8754ZM125.269 32.3438H122.007V26.4521H125.269C126.983 26.4521 127.956 28.0401 127.956 29.3979C127.956 30.7299 126.983 32.3438 125.269 32.3438ZM125.21 24.0598H119.715V41.2482H122.007V34.736H125.21C127.751 34.736 130.249 32.6773 130.249 29.3979C130.249 26.1185 127.751 24.0598 125.21 24.0598V24.0598ZM95.249 39.2991C93.6649 39.2991 92.3386 37.8151 92.3386 35.7769C92.3386 33.7173 93.6649 32.2107 95.249 32.2107C96.813 32.2107 98.0403 33.7172 98.0403 35.7769C98.0403 37.8151 96.813 39.2991 95.249 39.2991H95.249ZM97.8819 31.2139H97.8027C97.2881 30.5274 96.2978 29.9072 95.0508 29.9072C92.4375 29.9072 90.0423 32.4765 90.0423 35.7769C90.0423 39.0553 92.4375 41.6027 95.0508 41.6027C96.2978 41.6027 97.2881 40.9823 97.8027 40.2739H97.8819V41.1155C97.8819 43.3531 96.813 44.5492 95.0906 44.5492C93.685 44.5492 92.8139 43.4191 92.4572 42.4668L90.458 43.3971C91.0321 44.9476 92.5566 46.8527 95.0906 46.8527C97.783 46.8527 100.06 45.0803 100.06 40.7611V30.2616H97.8819V31.2139ZM101.643 41.2482H103.94V24.0592H101.643V41.2482ZM107.325 35.5777C107.266 33.3181 108.889 32.1666 110.057 32.1666C110.968 32.1666 111.74 32.6757 111.997 33.4074L107.325 35.5777ZM114.452 33.6285C114.017 32.3212 112.69 29.9072 109.978 29.9072C107.285 29.9072 105.049 32.2772 105.049 35.7549C105.049 39.0333 107.266 41.6027 110.235 41.6027C112.631 41.6027 114.017 39.9634 114.591 39.0111L112.809 37.6818C112.216 38.6567 111.403 39.2991 110.235 39.2991C109.067 39.2991 108.236 38.7008 107.701 37.5272L114.689 34.2929L114.452 33.6285ZM58.7753 31.7014V34.1823H64.0809C63.9225 35.5777 63.5067 36.5965 62.8731 37.3054C62.1013 38.1696 60.8936 39.1219 58.7753 39.1219C55.5086 39.1219 52.955 36.1759 52.955 32.521C52.955 28.8662 55.5087 25.9198 58.7753 25.9198C60.5374 25.9198 61.8238 26.6953 62.7742 27.6921L64.3382 25.9423C63.0119 24.5244 61.2498 23.439 58.7753 23.439C54.301 23.439 50.5396 27.5149 50.5396 32.521C50.5396 37.5272 54.301 41.6027 58.7753 41.6027C61.1907 41.6027 63.0119 40.7171 64.4371 39.0553C65.9022 37.4161 66.3577 35.1125 66.3577 33.2521C66.3577 32.6757 66.3183 32.1446 66.2386 31.7014H58.7753ZM72.3896 39.2991C70.8055 39.2991 69.4394 37.8371 69.4394 35.7549C69.4394 33.6505 70.8055 32.2107 72.3896 32.2107C73.9731 32.2107 75.3392 33.6505 75.3392 35.7549C75.3392 37.8371 73.9731 39.2991 72.3896 39.2991ZM72.3896 29.9072C69.4989 29.9072 67.1429 32.3658 67.1429 35.7549C67.1429 39.1219 69.4989 41.6027 72.3896 41.6027C75.2797 41.6027 77.6357 39.1219 77.6357 35.7549C77.6357 32.3658 75.2797 29.9072 72.3896 29.9072ZM83.8341 39.2991C82.2506 39.2991 80.8844 37.8371 80.8844 35.7549C80.8844 33.6505 82.2506 32.2107 83.8341 32.2107C85.4177 32.2107 86.7838 33.6505 86.7838 35.7549C86.7838 37.8371 85.4177 39.2991 83.8341 39.2991H83.8341ZM83.8341 29.9072C80.9435 29.9072 78.588 32.3658 78.588 35.7549C78.588 39.1219 80.9435 41.6027 83.8341 41.6027C86.7244 41.6027 89.0804 39.1219 89.0804 35.7549C89.0804 32.3658 86.7244 29.9072 83.8341 29.9072H83.8341Z" fill="white"/>
  <path d="M13.019 10.4654C12.6066 10.8817 12.3604 11.576 12.3604 12.4978V12.2894V42.7046V42.5042C12.3604 43.3554 12.5716 44.0128 12.9291 44.4361L13.0204 44.5339V44.5343C13.3098 44.8266 13.6809 44.9817 14.1063 44.9812C14.5219 44.9812 14.9894 44.833 15.4829 44.5199L33.3199 33.1804L39.4468 29.2849C40.2249 28.7903 40.6618 28.1522 40.7348 27.5023V27.4996C40.6618 26.8482 40.2249 26.2106 39.4468 25.716L33.3194 21.821L15.483 10.4814C14.9885 10.1678 14.5205 10.019 14.1038 10.019C13.679 10.019 13.3084 10.1737 13.0191 10.4654H13.019Z" fill="#00C1FF"/>
  <path d="M13.0205 44.5337L12.9291 44.4359C12.5716 44.0127 12.3604 43.3552 12.3604 42.504V42.7044V12.2967V12.4975C12.3604 11.5758 12.6066 10.8815 13.019 10.4652L28.2442 27.5L13.0205 44.5337Z" fill="url(#paint0_linear_26_2705)"/>
  <path d="M33.3198 33.1804L28.244 27.5003L33.3193 21.8211L39.4467 25.716C40.2248 26.2107 40.6616 26.8482 40.7346 27.4997V27.5023C40.6616 28.1523 40.2248 28.7904 39.4467 29.2849L33.3198 33.1804" fill="url(#paint1_linear_26_2705)"/>
  <path d="M14.1063 44.981C13.681 44.9814 13.3099 44.8262 13.0205 44.534V44.5336L28.2442 27.4999L33.32 33.18L15.4829 44.5196C14.9895 44.8327 14.5219 44.981 14.1063 44.981Z" fill="url(#paint2_linear_26_2705)"/>
  <path d="M28.2441 27.5005L13.0189 10.4657C13.3083 10.174 13.6789 10.0193 14.1037 10.0193C14.5204 10.0193 14.9884 10.1681 15.4828 10.4817L33.3194 21.8213L28.2441 27.5005" fill="url(#paint3_linear_26_2705)"/>
  <path d="M14.1068 45.1829C13.6816 45.1829 13.31 45.0276 13.0205 44.7355L13.02 44.736C13.0188 44.7346 13.0176 44.7334 13.0162 44.7323L12.9371 44.6458C12.9346 44.643 12.9323 44.6399 12.9293 44.6367L13.0206 44.5346C13.31 44.8267 13.6811 44.982 14.1065 44.9814C14.522 44.9814 14.9896 44.8332 15.4831 44.5201L33.3201 33.1806L33.4343 33.3085L33.3186 33.382L15.483 44.721C15.0333 45.0062 14.6055 45.1549 14.2191 45.1797C14.1817 45.1818 14.1443 45.1828 14.1068 45.1828" fill="url(#paint4_linear_26_2705)"/>
  <path d="M12.9291 44.6362C12.5716 44.2129 12.3604 43.5561 12.3604 42.7043V42.504C12.3604 43.3552 12.5716 44.0126 12.9291 44.4359L13.0204 44.5337L12.9291 44.6362" fill="url(#paint5_linear_26_2705)"/>
  <path d="M33.4341 33.3073L33.3198 33.1794L39.4467 29.284C40.2248 28.7894 40.6617 28.1513 40.7347 27.5014C40.7347 27.7399 40.6871 27.9783 40.5926 28.2104C40.402 28.6782 40.02 29.1202 39.4468 29.4848L33.4341 33.3074" fill="url(#paint6_linear_26_2705)"/>
  <path d="M40.7347 27.5C40.6617 26.8485 40.2249 26.211 39.4468 25.7163L33.3193 21.8213L33.4336 21.6934H33.4341L39.4468 25.5159C40.3046 26.0616 40.7342 26.7807 40.7347 27.5" fill="url(#paint7_linear_26_2705)"/>
  <path d="M12.3604 12.4973V12.2872C12.3604 12.2115 12.3622 12.1374 12.3657 12.0654V12.0622C12.3657 12.0612 12.3657 12.0601 12.3661 12.059V12.0509C12.4031 11.3177 12.6066 10.7458 12.9291 10.364L13.019 10.4649C12.6066 10.8812 12.3604 11.5756 12.3604 12.4973Z" fill="url(#paint8_linear_26_2705)"/>
  <path d="M33.3193 21.821L15.4828 10.4814C14.9884 10.1678 14.5204 10.0191 14.1037 10.0191C13.6789 10.0191 13.3083 10.1737 13.0189 10.4654L12.9291 10.3644C12.9571 10.3312 12.9863 10.2991 13.0165 10.2683C13.0174 10.2672 13.0189 10.2661 13.0199 10.265C13.3069 9.97561 13.6736 9.82094 14.0947 9.81816H14.1037C14.5204 9.81816 14.9884 9.96696 15.4828 10.2807L33.4341 21.6927L33.4336 21.6931L33.3193 21.821" fill="url(#paint9_linear_26_2705)"/>
  <defs>
    <linearGradient id="paint0_linear_26_2705" x1="22.0902" y1="11.9753" x2="7.52016" y2="25.0393" gradientUnits="userSpaceOnUse">
      <stop stop-color="#00A0FF"/>
      <stop offset="0.00657" stop-color="#00A1FF"/>
      <stop offset="0.2601" stop-color="#00BEFF"/>
      <stop offset="0.5122" stop-color="#00D2FF"/>
      <stop offset="0.7604" stop-color="#00DFFF"/>
      <stop offset="1" stop-color="#00E3FF"/>
    </linearGradient>
    <linearGradient id="paint1_linear_26_2705" x1="41.6827" y1="27.4021" x2="11.9482" y2="27.4021" gradientUnits="userSpaceOnUse">
      <stop stop-color="#FFE000"/>
      <stop offset="0.4087" stop-color="#FFBD00"/>
      <stop offset="0.7754" stop-color="#FFA500"/>
      <stop offset="1" stop-color="#FF9C00"/>
    </linearGradient>
    <linearGradient id="paint2_linear_26_2705" x1="30.6252" y1="32.9003" x2="5.95504" y2="54.8589" gradientUnits="userSpaceOnUse">
      <stop stop-color="#FF3A44"/>
      <stop offset="1" stop-color="#C31162"/>
    </linearGradient>
    <linearGradient id="paint3_linear_26_2705" x1="9.09489" y1="7.94017" x2="20.0917" y2="17.7433" gradientUnits="userSpaceOnUse">
      <stop stop-color="#32A071"/>
      <stop offset="0.0685" stop-color="#2DA771"/>
      <stop offset="0.4762" stop-color="#15CF74"/>
      <stop offset="0.8009" stop-color="#06E775"/>
      <stop offset="1" stop-color="#00F076"/>
    </linearGradient>
    <linearGradient id="paint4_linear_26_2705" x1="30.6142" y1="36.841" x2="10.8412" y2="54.5703" gradientUnits="userSpaceOnUse">
      <stop stop-color="#CC2E36"/>
      <stop offset="1" stop-color="#9C0E4E"/>
    </linearGradient>
    <linearGradient id="paint5_linear_26_2705" x1="14.3886" y1="11.9753" x2="1.55258" y2="23.4847" gradientUnits="userSpaceOnUse">
      <stop stop-color="#008DE0"/>
      <stop offset="0.00657" stop-color="#008DE0"/>
      <stop offset="0.2601" stop-color="#00A7E0"/>
      <stop offset="0.5122" stop-color="#00B8E0"/>
      <stop offset="0.7604" stop-color="#00C4E0"/>
      <stop offset="1" stop-color="#00C7E0"/>
    </linearGradient>
    <linearGradient id="paint6_linear_26_2705" x1="41.6828" y1="27.5001" x2="11.9483" y2="27.5001" gradientUnits="userSpaceOnUse">
      <stop stop-color="#E0C500"/>
      <stop offset="0.4087" stop-color="#E0A600"/>
      <stop offset="0.7754" stop-color="#E09100"/>
      <stop offset="1" stop-color="#E08900"/>
    </linearGradient>
    <linearGradient id="paint7_linear_26_2705" x1="41.6828" y1="27.5014" x2="11.9484" y2="27.5014" gradientUnits="userSpaceOnUse">
      <stop stop-color="#FFE840"/>
      <stop offset="0.4087" stop-color="#FFCE40"/>
      <stop offset="0.7754" stop-color="#FFBC40"/>
      <stop offset="1" stop-color="#FFB540"/>
    </linearGradient>
    <linearGradient id="paint8_linear_26_2705" x1="14.3761" y1="11.9985" x2="2.07278" y2="22.5522" gradientUnits="userSpaceOnUse">
      <stop stop-color="#40B8FF"/>
      <stop offset="0.00657" stop-color="#40B9FF"/>
      <stop offset="0.2601" stop-color="#40CEFF"/>
      <stop offset="0.5122" stop-color="#40DDFF"/>
      <stop offset="0.7604" stop-color="#40E7FF"/>
      <stop offset="1" stop-color="#40EAFF"/>
    </linearGradient>
    <linearGradient id="paint9_linear_26_2705" x1="9.0727" y1="11.5424" x2="17.9023" y2="19.4594" gradientUnits="userSpaceOnUse">
      <stop stop-color="#65B895"/>
      <stop offset="0.0685" stop-color="#62BD95"/>
      <stop offset="0.4762" stop-color="#50DB97"/>
      <stop offset="0.8009" stop-color="#44ED98"/>
      <stop offset="1" stop-color="#40F498"/>
    </linearGradient>
  </defs>
</svg>