<svg width="221" height="51" viewBox="0 0 221 51" fill="none" xmlns="http://www.w3.org/2000/svg">
<path d="M66.908 37.468C61.436 37.468 57.26 33.22 57.26 28.036C57.26 22.888 61.472 18.64 66.908 18.64C72.416 18.64 76.592 22.924 76.592 28.036C76.592 33.22 72.38 37.468 66.908 37.468ZM66.908 32.68C69.536 32.68 71.48 30.592 71.48 28.072C71.48 25.552 69.536 23.464 66.908 23.464C64.28 23.464 62.372 25.552 62.372 28.072C62.372 30.592 64.28 32.68 66.908 32.68ZM83.5662 26.38L77.7342 12.772H83.3862L88.3542 24.94C88.5702 25.408 88.6782 25.66 88.8942 25.66C89.1102 25.66 89.2182 25.372 89.4342 24.94L94.3662 12.772H100.054L94.1502 26.38C93.5382 27.856 92.6022 28.9 91.5222 29.548V37H86.2662V29.584C85.1862 28.936 84.2142 27.892 83.5662 26.38ZM108.603 37.468C103.131 37.468 98.9553 33.22 98.9553 28.036C98.9553 22.888 103.167 18.64 108.603 18.64C114.111 18.64 118.287 22.924 118.287 28.036C118.287 33.22 114.075 37.468 108.603 37.468ZM108.603 32.68C111.231 32.68 113.175 30.592 113.175 28.072C113.175 25.552 111.231 23.464 108.603 23.464C105.975 23.464 104.067 25.552 104.067 28.072C104.067 30.592 105.975 32.68 108.603 32.68ZM130.435 37.468C124.963 37.468 120.787 33.22 120.787 28.036C120.787 22.888 124.999 18.64 130.435 18.64C135.943 18.64 140.119 22.924 140.119 28.036C140.119 33.22 135.907 37.468 130.435 37.468ZM130.435 32.68C133.063 32.68 135.007 30.592 135.007 28.072C135.007 25.552 133.063 23.464 130.435 23.464C127.807 23.464 125.899 25.552 125.899 28.072C125.899 30.592 127.807 32.68 130.435 32.68ZM146.419 37.396C144.655 37.396 143.251 35.956 143.251 34.228C143.251 32.5 144.655 31.06 146.419 31.06C148.147 31.06 149.551 32.5 149.551 34.228C149.551 35.956 148.147 37.396 146.419 37.396Z" fill="#FA502F"/>
<path d="M161.402 37.504C157.694 37.504 155.102 36.136 153.626 33.472L157.406 31.348C158.162 32.788 159.35 33.4 161.15 33.4C162.806 33.4 163.85 32.752 163.85 31.708C163.85 28.828 154.058 31.312 154.058 24.436C154.058 21.232 156.866 18.712 161.258 18.712C165.074 18.712 167.378 20.512 168.458 22.564L164.678 24.688C164.102 23.392 162.806 22.78 161.366 22.78C160.106 22.78 159.17 23.392 159.17 24.328C159.17 27.208 168.962 24.904 168.962 31.6C168.962 35.2 165.47 37.504 161.402 37.504ZM175.764 16.516C174.036 16.516 172.596 15.112 172.596 13.348C172.596 11.62 174.036 10.18 175.764 10.18C177.492 10.18 178.896 11.62 178.896 13.348C178.896 15.112 177.492 16.516 175.764 16.516ZM173.208 19.18H178.32V37H173.208V19.18ZM192.496 37.504C187.348 37.504 184.792 34.408 184.792 29.944V23.5H181.516V19.18H184.792V14.644H189.904V19.18H196.204V23.5H189.904V29.8C189.904 31.78 191.092 32.932 192.964 32.932C194.008 32.932 195.34 32.608 196.204 32.068V36.64C195.304 37.216 193.756 37.504 192.496 37.504ZM208.519 37.468C202.975 37.468 198.799 33.616 198.799 27.928C198.799 22.78 202.543 18.532 208.051 18.532C213.703 18.532 216.979 22.708 216.979 27.568V29.08H203.731C204.091 31.456 205.927 33.04 208.483 33.04C210.427 33.04 212.047 32.104 212.875 30.448L216.799 32.428C215.251 35.632 212.299 37.468 208.519 37.468ZM203.947 26.236H211.903C211.687 24.4 210.175 22.996 208.015 22.996C205.783 22.996 204.307 24.436 203.947 26.236Z" fill="#273C75"/>
<path d="M0 13C0 5.8203 5.8203 0 13 0H38C45.1797 0 51 5.8203 51 13V38C51 45.1797 45.1797 51 38 51H13C5.8203 51 0 45.1797 0 38V13Z" fill="url(#paint0_linear_459_16859)"/>
<path d="M42.2446 44.2767C41.9327 44.2767 41.6799 44.0239 41.6799 43.712V41.1495C41.6799 40.7894 41.388 40.4976 41.0279 40.4976H40.8118C40.5711 40.4976 40.376 40.3024 40.376 40.0618C40.376 39.8211 40.5711 39.626 40.8118 39.626H43.6984C43.9391 39.626 44.1342 39.8211 44.1342 40.0618C44.1342 40.3024 43.9391 40.4976 43.6984 40.4976H43.4718C43.106 40.4976 42.8094 40.7941 42.8094 41.16V43.712C42.8094 44.0239 42.5566 44.2767 42.2446 44.2767Z" fill="white"/>
<path d="M36.1777 44.2767C35.8908 44.2767 35.6582 44.0442 35.6582 43.7573V40.2662C35.6582 39.9126 35.9448 39.626 36.2984 39.626C36.501 39.626 36.6916 39.7219 36.8124 39.8845L38.9564 42.7723C38.9906 42.8185 38.9965 42.8798 38.9716 42.9316C38.9004 43.08 38.6774 43.0292 38.6774 42.8646V40.1454C38.6774 39.8585 38.9099 39.626 39.1968 39.626C39.4837 39.626 39.7163 39.8585 39.7163 40.1454V43.7073C39.7163 44.0218 39.4614 44.2767 39.1469 44.2767C38.9696 44.2767 38.8024 44.1942 38.6947 44.0534L36.4791 41.1586C36.4505 41.1211 36.4461 41.0705 36.4679 41.0286C36.5266 40.9159 36.6971 40.9576 36.6971 41.0847V43.7573C36.6971 44.0442 36.4646 44.2767 36.1777 44.2767Z" fill="white"/>
<path d="M31.1447 44.2767C30.8005 44.2767 30.5627 43.9326 30.6843 43.6106L31.9741 40.1967C32.1039 39.8533 32.4327 39.626 32.7999 39.626C33.1739 39.626 33.5073 39.8617 33.632 40.2143L34.8132 43.5527C34.9383 43.906 34.6762 44.2767 34.3014 44.2767C34.0686 44.2767 33.8617 44.1284 33.7871 43.9079L32.5074 40.1291C32.4664 40.0078 32.5497 39.88 32.6773 39.8687C32.8191 39.8562 32.9273 39.9931 32.8823 40.1282L31.6116 43.9402C31.5446 44.1412 31.3565 44.2767 31.1447 44.2767ZM31.9683 43.2727C31.694 43.2727 31.4952 43.0113 31.5685 42.7469C31.6183 42.5673 31.7819 42.4429 31.9683 42.4429H33.3997C33.6088 42.4429 33.7852 42.5985 33.8113 42.8059C33.8425 43.0537 33.6494 43.2727 33.3997 43.2727H31.9683Z" fill="white"/>
<path d="M26.4515 44.2767C26.1396 44.2767 25.8867 44.0239 25.8867 43.712V40.1908C25.8867 39.8788 26.1396 39.626 26.4515 39.626C26.7634 39.626 27.0163 39.8788 27.0163 40.1908V40.6544C27.0163 41.1262 27.3987 41.5086 27.8704 41.5086C28.3422 41.5086 28.7246 41.1262 28.7246 40.6544V40.1873C28.7246 39.8773 28.9759 39.626 29.2859 39.626C29.5959 39.626 29.8472 39.8773 29.8472 40.1873V43.7154C29.8472 44.0254 29.5959 44.2767 29.2859 44.2767C28.9759 44.2767 28.7246 44.0254 28.7246 43.7154V43.2831C28.7246 42.8114 28.3422 42.429 27.8704 42.429C27.3987 42.429 27.0163 42.8114 27.0163 43.2831V43.712C27.0163 44.0239 26.7634 44.2767 26.4515 44.2767Z" fill="white"/>
<path d="M23.5518 44.3675C22.8081 44.3675 22.2386 44.1722 21.8435 43.7818C21.453 43.3867 21.2578 42.7777 21.2578 41.9549C21.2578 41.1554 21.4461 40.5511 21.8226 40.1421C22.1991 39.7283 22.7755 39.5215 23.5518 39.5215C23.7982 39.5215 24.0469 39.5517 24.2979 39.6121C24.4667 39.6528 24.6324 39.7039 24.7949 39.7656C24.9398 39.8206 25.03 39.9628 25.03 40.1177C25.03 40.4309 24.6773 40.6207 24.3806 40.5202C24.3646 40.5148 24.3487 40.5096 24.3328 40.5046C24.1096 40.4349 23.9004 40.4 23.7052 40.4C23.431 40.4 23.1985 40.4488 23.0079 40.5465C22.822 40.6441 22.6779 40.8068 22.5756 41.0346C22.478 41.2623 22.4292 41.5691 22.4292 41.9549C22.4292 42.3408 22.478 42.6452 22.5756 42.8684C22.6779 43.0915 22.8267 43.2519 23.0219 43.3495C23.2218 43.4424 23.4658 43.4889 23.754 43.4889C23.926 43.4889 24.1213 43.4564 24.3397 43.3913C24.3502 43.3882 24.3607 43.385 24.3712 43.3816C24.6732 43.286 25.03 43.4767 25.03 43.7934C25.03 43.9444 24.9454 44.0844 24.8045 44.1385C24.7349 44.1652 24.6613 44.1904 24.5838 44.2141C24.4211 44.2606 24.2491 44.2978 24.0678 44.3256C23.8912 44.3535 23.7192 44.3675 23.5518 44.3675Z" fill="white"/>
<path d="M17.1161 44.2767C16.8041 44.2767 16.5513 44.0239 16.5513 43.712V41.8921C16.5513 40.6406 17.5658 39.626 18.8174 39.626C19.3427 39.626 19.754 39.7492 20.0515 39.9955C20.349 40.2372 20.4978 40.6068 20.4978 41.1042C20.4978 41.3087 20.456 41.5109 20.3723 41.7108C20.2886 41.906 20.1654 42.0757 20.0027 42.2198C19.8543 42.3471 19.671 42.4337 19.4529 42.4796C19.4177 42.487 19.384 42.4633 19.3775 42.4279C19.3647 42.3575 19.4579 42.3204 19.497 42.3803L20.3504 43.6878C20.5158 43.9411 20.334 44.2767 20.0315 44.2767H19.514C19.3807 44.2767 19.2576 44.2054 19.1912 44.0898L18.3557 42.6338C18.3122 42.5581 18.4071 42.479 18.4738 42.5355C18.5292 42.5825 18.496 42.673 18.4233 42.673H17.9371C17.7956 42.673 17.6808 42.7878 17.6808 42.9293V43.712C17.6808 44.0239 17.428 44.2767 17.1161 44.2767ZM17.6808 41.1704C17.6808 41.542 17.9821 41.8433 18.3537 41.8433H18.6291C18.829 41.8433 18.9871 41.7898 19.1033 41.6829C19.2195 41.576 19.2776 41.3994 19.2776 41.153C19.2776 40.9392 19.2241 40.7765 19.1172 40.6649C19.0149 40.5533 18.8685 40.4976 18.6779 40.4976H18.3537C17.9821 40.4976 17.6808 40.7988 17.6808 41.1704Z" fill="white"/>
<path d="M14.0117 44.2767C13.1318 44.2767 12.4185 43.5634 12.4185 42.6835V41.2192C12.4185 40.3393 13.1318 39.626 14.0117 39.626H15.1692C15.4099 39.626 15.605 39.8211 15.605 40.0618C15.605 40.3024 15.4099 40.4976 15.1692 40.4976H14.0535C13.7744 40.4976 13.548 40.7239 13.548 41.0031C13.548 41.2823 13.7744 41.5086 14.0535 41.5086H14.8937C15.1364 41.5086 15.333 41.7053 15.333 41.9479C15.333 42.1905 15.1364 42.3871 14.8938 42.3871H14.057C13.7759 42.3871 13.548 42.615 13.548 42.8962C13.548 43.1773 13.7759 43.4052 14.057 43.4052H15.1692C15.4099 43.4052 15.605 43.6003 15.605 43.8409C15.605 44.0816 15.4099 44.2767 15.1692 44.2767H14.0117Z" fill="white"/>
<path d="M7.06187 44.2767C6.76342 44.2767 6.52148 44.0348 6.52148 43.7364V40.3863C6.52148 39.9664 6.8619 39.626 7.28183 39.626C7.52674 39.626 7.75667 39.744 7.89949 39.9429L9.09855 41.6132C9.17126 41.7145 9.1017 41.8559 8.97709 41.8602C8.84675 41.8646 8.76878 41.7167 8.84608 41.6117L10.0842 39.9296C10.2247 39.7387 10.4476 39.626 10.6846 39.626C11.0964 39.626 11.4302 39.9598 11.4302 40.3716V43.712C11.4302 44.0239 11.1774 44.2767 10.8654 44.2767C10.5535 44.2767 10.3007 44.0239 10.3007 43.712V40.8335C10.3007 40.7317 10.4343 40.6938 10.4877 40.7806C10.5095 40.816 10.5074 40.8611 10.4824 40.8942L9.8403 41.7475C9.38885 42.3475 8.48652 42.3421 8.04232 41.7367L7.41987 40.8884C7.38614 40.8424 7.39715 40.7777 7.44418 40.7454C7.51118 40.6995 7.60225 40.7474 7.60225 40.8287V43.7364C7.60225 44.0348 7.36031 44.2767 7.06187 44.2767Z" fill="white"/>
<path d="M22.262 8.44938C22.6998 8.44617 23.1394 8.69066 23.3611 9.07437L25.3007 12.363C25.9382 13.4593 27.1472 14.1385 28.4059 14.1293L32.7018 14.0978C33.3586 14.093 33.6901 14.5309 33.801 14.7228C33.9119 14.9146 34.1344 15.4084 33.8103 15.9888L24.9019 32.6233C24.7939 32.8168 24.5752 32.8459 24.4931 32.8465C24.3836 32.8473 24.1372 32.8216 23.9983 32.5474L23.9706 32.4926L23.9428 32.4377L22.4972 30.224C22.4831 30.2024 22.4668 30.1824 22.4485 30.1642C22.4301 30.146 22.4128 30.126 22.3974 30.1053C21.0917 28.3455 20.8715 27.332 21.4591 25.8502L23.1551 22.0395C23.3073 21.6926 23.2839 21.2935 23.0925 20.9666L16.858 10.3881C16.5254 9.81255 16.7407 9.31555 16.8487 9.12209C16.9568 8.92863 17.2819 8.48587 17.9386 8.48106L22.262 8.44938ZM22.2533 7.26592L17.9299 7.2976C16.0693 7.31124 14.9076 9.35651 15.8498 10.9735L19.9377 17.9582C21.2687 20.2324 21.4263 23.0076 20.3613 25.4179C19.5552 27.433 20.0035 28.861 21.4411 30.8597L22.9079 33.1059C23.2408 33.7365 23.8453 34.0623 24.4472 34.0579C24.9945 34.0539 25.5671 33.7745 25.8641 33.2218L34.7722 16.5598C35.6907 14.9291 34.4991 12.9011 32.6385 12.9147L28.3425 12.9462C27.4668 12.9526 26.6699 12.4906 26.2266 11.7507L24.287 8.46206C23.9259 7.72157 23.1015 7.25971 22.2533 7.26592Z" fill="white"/>
<path d="M26.4662 28.0009C26.4662 28.0009 26.4662 28.0009 26.4662 28.0009C26.6903 28.0009 26.8039 28.1383 26.9133 28.3034C26.968 28.386 27.1049 28.6612 26.968 28.9365L24.9771 32.6719L24.9521 32.7217L24.9023 32.8213C24.728 33.1201 24.5327 33.0649 24.4232 33.0649C24.3138 33.0649 24.0948 33.0374 23.9307 32.7897L21.5774 29.1566C21.4132 28.9089 21.4953 28.6612 21.55 28.5511C21.6047 28.4686 21.7416 28.2484 22.0426 28.2209L26.366 28.0007C26.4413 28.0009 26.4662 28.0009 26.4662 28.0009ZM26.366 26.8447C26.3387 26.8447 26.3113 26.8447 26.2839 26.8447L21.9605 27.0649C20.6744 27.12 19.9356 28.5787 20.647 29.6796L23.0003 33.3126C23.3287 33.8355 23.8759 34.0833 24.3958 34.0833C24.9979 34.0833 25.5999 33.7805 25.9009 33.1475L27.9531 29.4044C28.5278 28.3034 27.6248 26.8447 26.366 26.8447Z" fill="white"/>
<path fill-rule="evenodd" clip-rule="evenodd" d="M36.3076 33.0205C38.0955 33.0205 39.5449 31.5711 39.5449 29.7832C39.5449 27.9953 38.0955 26.5459 36.3076 26.5459C34.5197 26.5459 33.0703 27.9953 33.0703 29.7832C33.0703 31.5711 34.5197 33.0205 36.3076 33.0205ZM36.3076 34.0664C38.6732 34.0664 40.5908 32.1488 40.5908 29.7832C40.5908 27.4177 38.6732 25.5 36.3076 25.5C33.9421 25.5 32.0244 27.4177 32.0244 29.7832C32.0244 32.1488 33.9421 34.0664 36.3076 34.0664Z" fill="#7CFC00"/>
<path fill-rule="evenodd" clip-rule="evenodd" d="M33.0703 31.9746C34.2806 31.9746 35.2617 30.9935 35.2617 29.7832C35.2617 28.5729 34.2806 27.5918 33.0703 27.5918C31.86 27.5918 30.8789 28.5729 30.8789 29.7832C30.8789 30.9935 31.86 31.9746 33.0703 31.9746ZM33.0703 33.0205C34.8582 33.0205 36.3076 31.5711 36.3076 29.7832C36.3076 27.9953 34.8582 26.5459 33.0703 26.5459C31.2824 26.5459 29.833 27.9953 29.833 29.7832C29.833 31.5711 31.2824 33.0205 33.0703 33.0205Z" fill="#FFF5E6"/>
<path fill-rule="evenodd" clip-rule="evenodd" d="M14.3438 33.0205C16.1317 33.0205 17.5811 31.5711 17.5811 29.7832C17.5811 27.9953 16.1317 26.5459 14.3438 26.5459C12.5558 26.5459 11.1064 27.9953 11.1064 29.7832C11.1064 31.5711 12.5558 33.0205 14.3438 33.0205ZM14.3438 34.0664C16.7093 34.0664 18.627 32.1488 18.627 29.7832C18.627 27.4177 16.7093 25.5 14.3438 25.5C11.9782 25.5 10.0605 27.4177 10.0605 29.7832C10.0605 32.1488 11.9782 34.0664 14.3438 34.0664Z" fill="#7CFC00"/>
<defs>
<linearGradient id="paint0_linear_459_16859" x1="25.5" y1="0" x2="25.5" y2="51" gradientUnits="userSpaceOnUse">
<stop stop-color="#66F06C"/>
<stop offset="1"/>
</linearGradient>
</defs>
</svg>
