<svg width="13" height="18" viewBox="0 0 13 18" fill="none" xmlns="http://www.w3.org/2000/svg">
<path d="M2.37782 0.396753L3.36663 0.0993455C3.90831 -0.0639968 4.49092 -0.024676 5.00574 0.209971C5.52056 0.444617 5.93242 0.858559 6.16447 1.37456L6.92875 3.07427C7.12826 3.51809 7.18382 4.01325 7.08763 4.49025C6.99144 4.96725 6.74832 5.40218 6.3924 5.73399L5.12651 6.9143C5.0895 6.94879 5.06606 6.99537 5.06042 7.04564C5.02313 7.38202 5.25106 8.037 5.7764 8.94786C6.15854 9.60961 6.50509 10.0748 6.79911 10.3349C7.00416 10.5171 7.11685 10.5561 7.16515 10.5425L8.86825 10.0214C9.33335 9.87915 9.83131 9.88599 10.2923 10.041C10.7533 10.196 11.1543 10.4913 11.439 10.8857L12.5244 12.3905C12.8545 12.8481 13.0073 13.41 12.9545 13.9717C12.9016 14.5335 12.6468 15.057 12.2372 15.4451L11.4865 16.1568C11.088 16.5341 10.5987 16.8018 10.066 16.9338C9.5334 17.0658 8.97566 17.0577 8.44714 16.9101C6.11363 16.2585 4.02161 14.2893 2.14735 11.0433C0.270542 7.79297 -0.387822 4.99344 0.218856 2.64383C0.355422 2.11539 0.62581 1.63104 1.00396 1.23746C1.3821 0.843877 1.85526 0.55434 2.37782 0.396753ZM2.7447 1.61435C2.43126 1.70878 2.14741 1.88234 1.9205 2.1183C1.69359 2.35426 1.53127 2.64468 1.44916 2.96158C0.939074 4.93752 1.52287 7.4193 3.24801 10.4078C4.9706 13.392 6.82537 15.1375 8.78945 15.6866C9.10646 15.7749 9.44093 15.7796 9.76031 15.7003C10.0797 15.621 10.3731 15.4604 10.612 15.2341L11.3636 14.5223C11.5498 14.3459 11.6657 14.1079 11.6897 13.8525C11.7137 13.5971 11.6442 13.3416 11.4941 13.1336L10.4095 11.6296C10.2801 11.4502 10.0977 11.3157 9.88802 11.2452C9.6783 11.1747 9.45177 11.1716 9.24022 11.2365L7.53288 11.7593C6.54152 12.0541 5.64167 11.2568 4.67573 9.58335C4.025 8.45642 3.72166 7.58368 3.79707 6.90498C3.83689 6.5525 4.00042 6.22713 4.2597 5.9848L5.52559 4.80449C5.68745 4.65368 5.79802 4.45597 5.84178 4.23912C5.88555 4.02226 5.86031 3.79715 5.76962 3.59537L5.00534 1.89565C4.89987 1.66129 4.71278 1.47328 4.47894 1.36665C4.2451 1.26002 3.98047 1.24205 3.73437 1.31609L2.7447 1.61435Z" fill="#F2F2F2"/>
</svg>
