<svg width="137" height="24" viewBox="0 0 137 24" fill="none" xmlns="http://www.w3.org/2000/svg">
<g clip-path="url(#clip0_22_484)">
<path d="M12.3401 17.27L18.5201 21L16.8801 13.97L22.3401 9.24L15.1501 8.63L12.3401 2L9.53006 8.63L2.34006 9.24L7.80006 13.97L6.16006 21L12.3401 17.27Z" fill="#FB8E0B"/>
</g>
<g clip-path="url(#clip1_22_484)">
<path d="M40.3401 17.27L46.5201 21L44.8801 13.97L50.3401 9.24L43.1501 8.63L40.3401 2L37.5301 8.63L30.3401 9.24L35.8001 13.97L34.1601 21L40.3401 17.27Z" fill="#FB8E0B"/>
</g>
<g clip-path="url(#clip2_22_484)">
<path d="M68.3401 17.27L74.5201 21L72.8801 13.97L78.3401 9.24L71.1501 8.63L68.3401 2L65.5301 8.63L58.3401 9.24L63.8001 13.97L62.1601 21L68.3401 17.27Z" fill="#FB8E0B"/>
</g>
<g clip-path="url(#clip3_22_484)">
<path d="M96.3401 17.27L102.52 21L100.88 13.97L106.34 9.24L99.1501 8.63L96.3401 2L93.5301 8.63L86.3401 9.24L91.8001 13.97L90.1601 21L96.3401 17.27Z" fill="#FB8E0B"/>
</g>
<g clip-path="url(#clip4_22_484)">
<path d="M134.34 9.24L127.15 8.62L124.34 2L121.53 8.63L114.34 9.24L119.8 13.97L118.16 21L124.34 17.27L130.52 21L128.89 13.97L134.34 9.24ZM124.34 15.4L120.58 17.67L121.58 13.39L118.26 10.51L122.64 10.13L124.34 6.1L126.05 10.14L130.43 10.52L127.11 13.4L128.11 17.68L124.34 15.4Z" fill="#FB8E0B"/>
</g>
<defs>
<clipPath id="clip0_22_484">
<rect width="24" height="24" fill="white" transform="translate(0.340057)"/>
</clipPath>
<clipPath id="clip1_22_484">
<rect width="24" height="24" fill="white" transform="translate(28.3401)"/>
</clipPath>
<clipPath id="clip2_22_484">
<rect width="24" height="24" fill="white" transform="translate(56.3401)"/>
</clipPath>
<clipPath id="clip3_22_484">
<rect width="24" height="24" fill="white" transform="translate(84.3401)"/>
</clipPath>
<clipPath id="clip4_22_484">
<rect width="24" height="24" fill="white" transform="translate(112.34)"/>
</clipPath>
</defs>
</svg>
