<svg width="10" height="10" viewBox="0 0 10 10" fill="none" xmlns="http://www.w3.org/2000/svg">
<path d="M2.25799 6.16162L1.51299 9.38762C1.48992 9.48531 1.49685 9.58768 1.53286 9.68137C1.56888 9.77505 1.63231 9.8557 1.71487 9.91278C1.79744 9.96986 1.8953 10.0007 1.99567 10.0013C2.09604 10.0019 2.19425 9.97221 2.27749 9.91612L4.99999 8.10112L7.72249 9.91612C7.80766 9.97267 7.9081 10.0018 8.01031 9.99954C8.11251 9.9973 8.21158 9.96381 8.29419 9.90358C8.37679 9.84336 8.43898 9.75928 8.47237 9.66266C8.50577 9.56604 8.50878 9.4615 8.48099 9.36312L7.56649 6.16312L9.83449 4.12212C9.90713 4.05672 9.959 3.97145 9.9837 3.87688C10.0084 3.7823 10.0048 3.68256 9.97344 3.58999C9.94205 3.49742 9.88422 3.41609 9.80709 3.35603C9.72997 3.29599 9.63693 3.25986 9.53949 3.25212L6.68899 3.02512L5.45549 0.294623C5.41616 0.206701 5.35222 0.132041 5.2714 0.0796533C5.19057 0.0272657 5.09631 -0.000610352 4.99999 -0.000610352C4.90367 -0.000610352 4.80941 0.0272657 4.72859 0.0796533C4.64776 0.132041 4.58382 0.206701 4.54449 0.294623L3.31099 3.02512L0.46049 3.25162C0.364718 3.25921 0.273159 3.29423 0.196768 3.35249C0.120376 3.41075 0.0623867 3.48978 0.0297368 3.58014C-0.00291308 3.67049 -0.00884086 3.76834 0.0126627 3.86197C0.0341663 3.95561 0.0821906 4.04107 0.15099 4.10812L2.25799 6.16162ZM3.68449 3.99862C3.77374 3.99159 3.85945 3.96068 3.93264 3.90913C4.00583 3.85758 4.06381 3.78729 4.10049 3.70562L4.99999 1.71512L5.89949 3.70562C5.93617 3.78729 5.99415 3.85758 6.06734 3.90913C6.14053 3.96068 6.22624 3.99159 6.31549 3.99862L8.30149 4.15612L6.66599 5.62812C6.52399 5.75612 6.46749 5.95312 6.51949 6.13712L7.14599 8.32962L5.27799 7.08412C5.196 7.02909 5.09949 6.99971 5.00074 6.99971C4.90199 6.99971 4.80548 7.02909 4.72349 7.08412L2.77149 8.38562L3.29649 6.11262C3.31574 6.02902 3.31316 5.94188 3.28899 5.85957C3.26482 5.77725 3.21988 5.70254 3.15849 5.64262L1.63949 4.16162L3.68449 3.99862Z" fill="#FB8E0B"/>
</svg>
