<svg width="10" height="10" viewBox="0 0 10 10" fill="none" xmlns="http://www.w3.org/2000/svg">
<path d="M9.97345 3.58963C9.94202 3.49706 9.88417 3.41572 9.80704 3.35566C9.72992 3.29559 9.63689 3.25943 9.53945 3.25163L6.68895 3.02513L5.45545 0.294629C5.41616 0.206685 5.35227 0.13199 5.27147 0.0795581C5.19067 0.0271261 5.09643 -0.000801553 5.00011 -0.000854417C4.90379 -0.000907281 4.80951 0.0269169 4.72866 0.0792602C4.6478 0.131603 4.58383 0.206229 4.54445 0.294129L3.31095 3.02513L0.460446 3.25163C0.364674 3.25922 0.273115 3.29423 0.196724 3.35249C0.120332 3.41075 0.0623428 3.48979 0.0296929 3.58014C-0.00295695 3.6705 -0.00888473 3.76835 0.0126188 3.86198C0.0341224 3.95562 0.0821467 4.04107 0.150946 4.10813L2.25745 6.16163L1.51245 9.38763C1.48982 9.48528 1.49708 9.58747 1.53326 9.68095C1.56944 9.77443 1.63288 9.85487 1.71535 9.91185C1.79782 9.96882 1.89551 9.99969 1.99574 10.0005C2.09597 10.0012 2.19412 9.97184 2.27745 9.91613L4.99995 8.10113L7.72245 9.91613C7.80761 9.97268 7.90806 10.0018 8.01026 9.99955C8.11247 9.9973 8.21154 9.96382 8.29414 9.90359C8.37675 9.84337 8.43893 9.75929 8.47233 9.66267C8.50572 9.56604 8.50873 9.46151 8.48095 9.36313L7.56645 6.16313L9.83445 4.12213C9.98295 3.98813 10.0374 3.77913 9.97345 3.58963Z" fill="#FB8E0B"/>
</svg>
