<svg width="46" height="46" viewBox="0 0 46 46" fill="none" xmlns="http://www.w3.org/2000/svg">
<g clip-path="url(#clip0_20_424)">
<path d="M32.6558 11.3051L10.6207 5.40076L5.5036 24.4979L27.5388 30.4022L32.6558 11.3051Z" stroke="white" stroke-width="2" stroke-linecap="round" stroke-linejoin="round"/>
<path d="M30.6918 18.6501L36.5678 20.2246L39.794 25.8125L37.8259 33.1576L27.5428 30.4022L30.6918 18.6501Z" stroke="white" stroke-width="2" stroke-linecap="round" stroke-linejoin="round"/>
<path d="M10.1475 33.6143C12.1758 34.1577 14.2606 32.9541 14.8041 30.9258C15.3476 28.8975 14.1439 26.8127 12.1156 26.2692C10.0874 25.7257 8.00254 26.9294 7.45906 28.9577C6.91559 30.986 8.11926 33.0708 10.1475 33.6143Z" stroke="white" stroke-width="2" stroke-linecap="round" stroke-linejoin="round"/>
<path d="M29.2462 38.7313C31.2745 39.2748 33.3593 38.0711 33.9028 36.0429C34.4463 34.0146 33.2426 31.9297 31.2143 31.3863C29.186 30.8428 27.1012 32.0465 26.5577 34.0748C26.0143 36.103 27.2179 38.1879 29.2462 38.7313Z" stroke="white" stroke-width="2" stroke-linecap="round" stroke-linejoin="round"/>
</g>
<defs>
<clipPath id="clip0_20_424">
<rect width="36.5" height="36.5" fill="white" transform="translate(10.3355 0.600098) rotate(15)"/>
</clipPath>
</defs>
</svg>
